# xmcd
#
# Track frame offsets:
#	150
#	16365
#	43081
#	58908
#	72766
#	84606
#	102947
#	116086
#	130175
#	142754
#	154727
#	175164
#	186826
#	200619
#	216961
#	231170
#	253051
#	269285
#	279131
#	293718
#	315908
#	332170
#	346966
#
# Disc length: 4785 seconds
#
# Revision: 1
# Processed by: cddbd v1.5.2PL0 Copyright (c) Steve Scherf et al.
# Submitted via: audiograbber 1.83.01
#
DISCID=5512af17
DTITLE=Willie Nelson - One Hell Of A Ride - CD3
DYEAR=2008
DGENRE=Country
TTITLE0=Whiskey River (Live)
TTITLE1=Till I Gain Control Again (Live)
TTITLE2=Stay A Little Longer (Live)
TTITLE3=Heartbreak Hotel
TTITLE4=One For My Baby (And One More For The Road)
TTITLE5=Help Me Make It Through The Night
TTITLE6=Midnight Rider
TTITLE7=My Heroes Have Always Been Cowboys
TTITLE8=Crazy Arms (with Ray Price)
TTITLE9=On The Road Again
TTITLE10=Angel Flying Too Close To The Ground
TTITLE11=Mona Lisa
TTITLE12=I'm Gonna Sit Right Down And Write Myself A Letter
TTITLE13=Always On My Mind
TTITLE14=Old Friends (with Roger Miller and Ray Price)
TTITLE15=Pancho and Lefty (with Merle Haggard)
TTITLE16=Reasons To Quit (with Merle Haggard)
TTITLE17=In The Jailhouse Now (with Webb Pierce)
TTITLE18=Why Do I Have To Choose (with Waylon Jennings)
TTITLE19=City Of New Orleans
TTITLE20=To All The Girls I've Loved Before (with Julio Iglesias)
TTITLE21=Three Days (with Faron Young)
TTITLE22=Touch Me (with Faron Young)
EXTD=
EXTT0=
EXTT1=
EXTT2=
EXTT3=
EXTT4=
EXTT5=
EXTT6=
EXTT7=
EXTT8=
EXTT9=
EXTT10=
EXTT11=
EXTT12=
EXTT13=
EXTT14=
EXTT15=
EXTT16=
EXTT17=
EXTT18=
EXTT19=
EXTT20=
EXTT21=
EXTT22=
PLAYORDER=
